<svg width="48" height="64" viewBox="0 0 48 64" fill="none" xmlns="http://www.w3.org/2000/svg">
<path d="M1.19336 24.1433C1.19336 11.5179 11.4613 1.24609 24.0813 1.24609C36.7012 1.24609 46.9692 11.5179 46.9692 24.1433C46.9692 33.5884 41.7858 42.9767 36.4266 50.1466C31.0785 57.3014 25.6177 62.1651 25.1821 62.5487C24.8675 62.8259 24.475 62.9643 24.0813 62.9643C23.6876 62.9643 23.2951 62.8257 22.9806 62.5487L22.6502 62.924L22.9806 62.5487C22.5449 62.165 17.084 57.3012 11.7359 50.1464C6.37665 42.9766 1.19336 33.5883 1.19336 24.1433ZM31.078 24.1433C31.078 20.2505 27.9449 17.075 24.0813 17.075C20.2177 17.075 17.0846 20.2505 17.0846 24.1433C17.0846 28.0361 20.2177 31.2116 24.0813 31.2116C27.9449 31.2116 31.078 28.0361 31.078 24.1433Z" fill="white" stroke="#00338D"/>
</svg>