<svg width="48" height="63" viewBox="0 0 48 63" fill="none" xmlns="http://www.w3.org/2000/svg">
    <path d="M24.0256 0.105469C11.1293 0.105469 0.637695 10.6013 0.637695 23.5027C0.637695 42.7248 21.6977 61.4935 22.5945 62.2833C23.0033 62.6434 23.5144 62.8237 24.0256 62.8237C24.5369 62.8237 25.0479 62.6436 25.4569 62.2833C26.3534 61.4938 47.4135 42.725 47.4135 23.5027C47.4135 10.6013 36.9219 0.105469 24.0256 0.105469ZM24.0256 16.9344C27.6079 16.9344 30.5223 19.8809 30.5223 23.5027C30.5223 27.1245 27.6079 30.071 24.0256 30.071C20.4433 30.071 17.5289 27.1245 17.5289 23.5027C17.5289 19.8809 20.4433 16.9344 24.0256 16.9344Z" fill="#F53F5B"/>
    </svg>