<svg width="46" height="21" viewBox="0 0 46 21" fill="none" xmlns="http://www.w3.org/2000/svg">
<path d="M23.3558 0.728516C10.9411 0.728516 0.841309 4.09133 0.841309 8.22484C0.841309 14.3835 9.12354 20.3973 9.98689 20.6503C10.3805 20.7657 10.8724 20.8235 11.3646 20.8235C11.8567 20.8235 12.3487 20.7658 12.7424 20.6503C13.6054 20.3974 45.8702 14.3836 45.8702 8.22484C45.8702 4.09133 35.7704 0.728516 23.3558 0.728516ZM11.3646 6.12081C14.8131 6.12081 17.6186 7.06484 17.6186 8.22525C17.6186 9.38566 14.8131 10.3297 11.3646 10.3297C7.91603 10.3297 5.11048 9.38566 5.11048 8.22525C5.11048 7.06484 7.91603 6.12081 11.3646 6.12081Z" fill="#8095C4" fill-opacity="0.35"/>
</svg>